<?xml version="1.0" encoding="UTF-8" standalone="no"?>
<!-- Generator: Adobe Illustrator 26.0.1, SVG Export Plug-In . SVG Version: 6.00 Build 0)  -->

<svg
   version="1.1"
   id="svg400"
   x="0px"
   y="0px"
   viewBox="0 0 64.7 64.7"
   style="enable-background:new 0 0 64.7 64.7;"
   xml:space="preserve"
   sodipodi:docname="logo_rs.svg"
   inkscape:version="1.3 (0e150ed6c4, 2023-07-21)"
   xmlns:inkscape="http://www.inkscape.org/namespaces/inkscape"
   xmlns:sodipodi="http://sodipodi.sourceforge.net/DTD/sodipodi-0.dtd"
   xmlns="http://www.w3.org/2000/svg"
   xmlns:svg="http://www.w3.org/2000/svg"><defs
   id="defs38" /><sodipodi:namedview
   id="namedview38"
   pagecolor="#505050"
   bordercolor="#eeeeee"
   borderopacity="1"
   inkscape:showpageshadow="0"
   inkscape:pageopacity="0"
   inkscape:pagecheckerboard="0"
   inkscape:deskcolor="#d1d1d1"
   showgrid="false"
   inkscape:current-layer="svg400" />&#10;<style
   type="text/css"
   id="style1">&#10;	.st0{fill-rule:evenodd;clip-rule:evenodd;fill:#FF9900;}&#10;	.st1{fill-rule:evenodd;clip-rule:evenodd;fill:url(#GK-8_00000115501436597612257600000008945162258384490888_);}&#10;	.st2{fill:none;stroke:#FF99CC;stroke-width:0.3;stroke-linecap:round;stroke-linejoin:round;}&#10;	.st3{fill-rule:evenodd;clip-rule:evenodd;fill:url(#GQ_00000146478546566901397830000003545671819370912416_);}&#10;	.st4{fill-rule:evenodd;clip-rule:evenodd;fill:#FF99CC;}&#10;	.st5{fill-rule:evenodd;clip-rule:evenodd;fill:url(#GQ-2_00000165927936957224090750000008492440889788213143_);}&#10;	.st6{fill-rule:evenodd;clip-rule:evenodd;fill:url(#GQ-3_00000006685666486662624400000006105777254283014577_);}&#10;	.st7{fill-rule:evenodd;clip-rule:evenodd;fill:url(#GQ-4_00000022522207363062726540000007514391469202625969_);}&#10;	.st8{fill-rule:evenodd;clip-rule:evenodd;fill:url(#GQ-5_00000005244681319507398300000003819214475188042900_);}&#10;	.st9{fill-rule:evenodd;clip-rule:evenodd;fill:url(#GQ-6_00000010998926205083038710000007562849483471818408_);}&#10;	.st10{fill-rule:evenodd;clip-rule:evenodd;fill:url(#GQ-7_00000000928277476368367030000011319403973377131393_);}&#10;	.st11{fill-rule:evenodd;clip-rule:evenodd;fill:url(#GK-8-2_00000150789938256982476880000001747544656323007878_);}&#10;	.st12{fill-rule:evenodd;clip-rule:evenodd;fill:url(#path94742_00000028315654619541287420000000949437874196515005_);}&#10;	.st13{fill-rule:evenodd;clip-rule:evenodd;fill:url(#path94752_00000147924851086990653130000010206222411680443065_);}&#10;	.st14{fill-rule:evenodd;clip-rule:evenodd;fill:url(#path309_00000029766216768065951100000013273895410186578613_);}&#10;	.st15{fill-rule:evenodd;clip-rule:evenodd;fill:url(#path311_00000078739035837165648520000007946203284298995334_);}&#10;	.st16{fill-rule:evenodd;clip-rule:evenodd;fill:url(#path313_00000087410071049208800810000014196084031878023097_);}&#10;	.st17{fill-rule:evenodd;clip-rule:evenodd;fill:url(#path315_00000152960109226057033980000014344584628384243366_);}&#10;	.st18{fill-rule:evenodd;clip-rule:evenodd;fill:url(#path317_00000147192098206063891950000006512382606128677044_);}&#10;	.st19{fill-rule:evenodd;clip-rule:evenodd;fill:url(#path319_00000149369219522114191570000004746468368726820230_);}&#10;	.st20{fill:#2682B1;}&#10;	.st21{fill-rule:evenodd;clip-rule:evenodd;fill:#2682B1;stroke:#2682B1;stroke-width:2;}&#10;	.st22{fill-rule:evenodd;clip-rule:evenodd;fill:#FFFFFF;}&#10;	.st23{fill-rule:evenodd;clip-rule:evenodd;fill:url(#SVGID_1_);}&#10;	.st24{fill-rule:evenodd;clip-rule:evenodd;fill:#D20476;}&#10;	.st25{fill-rule:evenodd;clip-rule:evenodd;fill:url(#SVGID_00000183230303815464691870000013268879370109140371_);}&#10;</style>&#10;<g
   id="g95187">&#10;	<g
   id="use95173">&#10;		<path
   id="GI"
   class="st0"
   d="M68.7-3.2v79.9H-3.9V-3.2L68.7-3.2" />&#10;	</g>&#10;	<g
   id="use95175">&#10;		<g
   id="GJ-6">&#10;			&#10;				<linearGradient
   id="GK-8_00000048496131570201899370000006478453545805931710_"
   gradientUnits="userSpaceOnUse"
   x1="-23459.3789"
   y1="-20099.7539"
   x2="-21820.9785"
   y2="-20099.7539"
   gradientTransform="matrix(2.018218e-18 -3.296000e-02 -0.1333 -8.160434e-18 -2646.3325 -717.8113)">&#10;				<stop
   offset="0"
   style="stop-color:#FF33CC;stop-opacity:0"
   id="stop1" />&#10;				<stop
   offset="1"
   style="stop-color:#FF33CC"
   id="stop2" />&#10;			</linearGradient>&#10;			&#10;				<path
   id="GK-8"
   style="fill-rule:evenodd;clip-rule:evenodd;fill:url(#GK-8_00000048496131570201899370000006478453545805931710_);"
   d="     M68.7,60.2H-3.9V-3.3h72.6V60.2" />&#10;		</g>&#10;	</g>&#10;	<g
   id="use95177">&#10;		<g
   id="GM-4">&#10;			<g
   id="use94661">&#10;				<path
   id="GN"
   class="st2"
   d="M23.5,7.7l3-1.5 M52.2,9.4l4.5,4.2 M62,15.2l10.8-3.2 M33.5,4.7l14.8,2.8 M68.2,40.9L50.5,30.7       M51,26.4l4.8-7.5" />&#10;			</g>&#10;			<g
   id="use94665">&#10;				<g
   id="GO-1">&#10;					<g
   id="use94672">&#10;						<g
   id="GP">&#10;							<g
   id="use94717">&#10;								&#10;									<radialGradient
   id="GQ_00000134236365812898314430000011667941842575679121_"
   cx="170.916"
   cy="1.1276"
   r="819.2"
   gradientTransform="matrix(4.860000e-03 0 0 4.860000e-03 -1406.2594 -684.871)"
   gradientUnits="userSpaceOnUse">&#10;									<stop
   offset="0"
   style="stop-color:#FF99CC"
   id="stop3" />&#10;									<stop
   offset="1"
   style="stop-color:#FF99CC;stop-opacity:0"
   id="stop4" />&#10;								</radialGradient>&#10;								&#10;									<path
   id="GQ"
   style="fill-rule:evenodd;clip-rule:evenodd;fill:url(#GQ_00000134236365812898314430000011667941842575679121_);"
   d="          M61.1,13.2c0.8,0.7,1.2,1.7,1.2,2.8c0,1-0.4,2-1.2,2.7c-1.5,1.5-3.9,1.6-5.4,0.1c0,0-0.1-0.1-0.1-0.1          C54.8,18,54.4,17,54.4,16c0-2.2,1.8-3.9,3.9-3.9C59.4,12.1,60.4,12.5,61.1,13.2" />&#10;							</g>&#10;							<g
   id="use94719">&#10;								<path
   id="GS-2"
   class="st4"
   d="M59.1,14.6c0.2,0.2,0.2,0.5,0.2,0.7l0,0.3c0.2-0.1,0.5,0.1,0.8,0.5L60,16.3l-0.3,0.2          c-0.3,0-0.5-0.1-0.7-0.2c0.2,0.4,0.2,0.8,0,1.1c-0.3,0-0.6-0.2-0.7-0.7l-0.1,0.1l-0.6,0.2h-0.2c0-0.4,0.4-0.8,0.8-0.9          c-0.5-0.2-0.7-0.5-0.6-0.9l0.9,0.2C58.4,15,58.7,14.7,59.1,14.6" />&#10;							</g>&#10;						</g>&#10;					</g>&#10;					<g
   id="use94674">&#10;						<g
   id="GP-2">&#10;							<g
   id="use94717-2">&#10;								&#10;									<radialGradient
   id="GQ-2_00000070102922963066369680000017343560740886934672_"
   cx="170.916"
   cy="1.1276"
   r="819.2"
   gradientTransform="matrix(2.430000e-03 0 0 2.430000e-03 -1417.7253 -692.3141)"
   gradientUnits="userSpaceOnUse">&#10;									<stop
   offset="0"
   style="stop-color:#FF99CC"
   id="stop5" />&#10;									<stop
   offset="1"
   style="stop-color:#FF99CC;stop-opacity:0"
   id="stop6" />&#10;								</radialGradient>&#10;								&#10;									<path
   id="GQ-2"
   style="fill-rule:evenodd;clip-rule:evenodd;fill:url(#GQ-2_00000070102922963066369680000017343560740886934672_);"
   d="          M51.4,7.2C51.8,7.5,52,8,52,8.6c0,0.5-0.2,1-0.6,1.4c-0.7,0.8-2,0.8-2.7,0.1c0,0,0,0-0.1-0.1c-0.4-0.4-0.6-0.9-0.6-1.4          c0-1.1,0.9-2,2-2C50.6,6.6,51,6.8,51.4,7.2" />&#10;							</g>&#10;							<g
   id="use94719-2">&#10;								<path
   id="GS-2-2"
   class="st4"
   d="M50.4,7.9c0.1,0.1,0.1,0.2,0.1,0.4l0,0.2c0.1,0,0.2,0.1,0.4,0.2l0,0.1l-0.1,0.1          c-0.1,0-0.3,0-0.4-0.1c0.1,0.2,0.1,0.4,0,0.6c-0.2,0-0.3-0.1-0.3-0.4l-0.1,0L49.6,9h-0.1c0-0.2,0.2-0.4,0.4-0.4          c-0.2-0.1-0.4-0.2-0.3-0.4L50,8.2C50.1,8,50.2,7.9,50.4,7.9" />&#10;							</g>&#10;						</g>&#10;					</g>&#10;					<g
   id="use94684">&#10;						<g
   id="GP-3">&#10;							<g
   id="use94717-3">&#10;								&#10;									<radialGradient
   id="GQ-3_00000066477161408368399840000017310740023380512896_"
   cx="170.916"
   cy="1.1276"
   r="819.2"
   gradientTransform="matrix(2.430000e-03 0 0 2.430000e-03 -1424.7701 -672.2025)"
   gradientUnits="userSpaceOnUse">&#10;									<stop
   offset="0"
   style="stop-color:#FF99CC"
   id="stop7" />&#10;									<stop
   offset="1"
   style="stop-color:#FF99CC;stop-opacity:0"
   id="stop8" />&#10;								</radialGradient>&#10;								&#10;									<path
   id="GQ-3"
   style="fill-rule:evenodd;clip-rule:evenodd;fill:url(#GQ-3_00000066477161408368399840000017310740023380512896_);"
   d="          M44.4,27.3c0.4,0.4,0.6,0.9,0.6,1.4c0,0.5-0.2,1-0.6,1.4c-0.7,0.8-2,0.8-2.7,0.1c0,0,0,0-0.1-0.1c-0.4-0.4-0.6-0.9-0.6-1.4          c0-1.1,0.9-2,2-2C43.5,26.7,44,26.9,44.4,27.3" />&#10;							</g>&#10;							<g
   id="use94719-3">&#10;								<path
   id="GS-2-3"
   class="st4"
   d="M43.3,28c0.1,0.1,0.1,0.2,0.1,0.4l0,0.2c0.1,0,0.2,0.1,0.4,0.2l0,0.1l-0.1,0.1          c-0.1,0-0.3,0-0.4-0.1c0.1,0.2,0.1,0.4,0,0.6c-0.2,0-0.3-0.1-0.3-0.4l-0.1,0l-0.3,0.1h-0.1c0-0.2,0.2-0.4,0.4-0.4          c-0.2-0.1-0.4-0.2-0.3-0.4l0.4,0.1C43,28.2,43.2,28,43.3,28" />&#10;							</g>&#10;						</g>&#10;					</g>&#10;					<g
   id="use94700">&#10;						<g
   id="GP-4">&#10;							<g
   id="use94717-4">&#10;								&#10;									<radialGradient
   id="GQ-4_00000169556170725499562500000003447723649508491189_"
   cx="170.916"
   cy="1.1276"
   r="819.2"
   gradientTransform="matrix(-2.190000e-03 0 0 2.430000e-03 -1409.0419 -671.6798)"
   gradientUnits="userSpaceOnUse">&#10;									<stop
   offset="0"
   style="stop-color:#FF99CC"
   id="stop9" />&#10;									<stop
   offset="1"
   style="stop-color:#FF99CC;stop-opacity:0"
   id="stop10" />&#10;								</radialGradient>&#10;								&#10;									<path
   id="GQ-4"
   style="fill-rule:evenodd;clip-rule:evenodd;fill:url(#GQ-4_00000169556170725499562500000003447723649508491189_);"
   d="          M63.5,27.8c-0.3,0.4-0.5,0.9-0.5,1.4c0,0.5,0.2,1,0.5,1.4c0.6,0.7,1.6,0.8,2.3,0.2c0.1-0.1,0.2-0.1,0.2-0.2          c0.3-0.4,0.5-0.9,0.5-1.4c0-0.5-0.2-1-0.5-1.4c-0.6-0.7-1.7-0.8-2.3-0.2C63.6,27.7,63.5,27.7,63.5,27.8" />&#10;							</g>&#10;							<g
   id="use94719-4">&#10;								<path
   id="GS-2-4"
   class="st4"
   d="M64.4,28.5c-0.1,0.1-0.1,0.2-0.1,0.4l0,0.2c-0.1,0-0.2,0.1-0.3,0.2l0,0.1l0.1,0.1          c0.1,0,0.2,0,0.3-0.1c-0.1,0.2-0.1,0.4,0,0.6c0.2,0,0.3-0.1,0.3-0.4l0.1,0l0.3,0.1h0.1c0-0.2-0.2-0.4-0.4-0.4          c0.2,0,0.3-0.2,0.3-0.4l-0.4,0.1C64.7,28.7,64.6,28.6,64.4,28.5" />&#10;							</g>&#10;						</g>&#10;					</g>&#10;					<g
   id="use94704">&#10;						<g
   id="GP-5">&#10;							<g
   id="use94717-5">&#10;								&#10;									<radialGradient
   id="GQ-5_00000170257055270187257920000017169362449031414178_"
   cx="170.916"
   cy="1.1276"
   r="819.2"
   gradientTransform="matrix(4.860000e-03 0 0 4.860000e-03 -1435.0746 -695.7791)"
   gradientUnits="userSpaceOnUse">&#10;									<stop
   offset="0"
   style="stop-color:#FF99CC"
   id="stop11" />&#10;									<stop
   offset="1"
   style="stop-color:#FF99CC;stop-opacity:0"
   id="stop12" />&#10;								</radialGradient>&#10;								&#10;									<path
   id="GQ-5"
   style="fill-rule:evenodd;clip-rule:evenodd;fill:url(#GQ-5_00000170257055270187257920000017169362449031414178_);"
   d="          M32.3,2.3C33,3,33.5,4,33.5,5.1c0,1-0.4,2-1.2,2.7c-1.5,1.5-3.9,1.6-5.4,0.1c0,0-0.1-0.1-0.1-0.1c-0.8-0.7-1.2-1.7-1.2-2.7          C25.6,4,26,3,26.7,2.3C28.3,0.8,30.8,0.8,32.3,2.3" />&#10;							</g>&#10;							<g
   id="use94719-5">&#10;								<path
   id="GS-2-5"
   class="st4"
   d="M30.2,3.7c0.2,0.2,0.2,0.5,0.2,0.7l0,0.3c0.2-0.1,0.5,0.1,0.8,0.5l-0.1,0.1l-0.3,0.2          c-0.3,0-0.5-0.1-0.7-0.2c0.2,0.4,0.2,0.8,0,1.1c-0.3,0-0.6-0.2-0.7-0.7l-0.1,0.1L28.7,6h-0.2c0-0.4,0.4-0.8,0.8-0.9          c-0.5-0.2-0.7-0.5-0.6-0.9l0.9,0.2C29.6,4.1,29.9,3.8,30.2,3.7" />&#10;							</g>&#10;						</g>&#10;					</g>&#10;					<g
   id="use94706">&#10;						<g
   id="GP-6">&#10;							<g
   id="use94717-6">&#10;								&#10;									<radialGradient
   id="GQ-6_00000165216354833877391040000018072502771668754833_"
   cx="170.916"
   cy="1.1276"
   r="819.2"
   gradientTransform="matrix(2.430000e-03 0 0 2.430000e-03 -1448.3359 -691.9733)"
   gradientUnits="userSpaceOnUse">&#10;									<stop
   offset="0"
   style="stop-color:#FF99CC"
   id="stop13" />&#10;									<stop
   offset="1"
   style="stop-color:#FF99CC;stop-opacity:0"
   id="stop14" />&#10;								</radialGradient>&#10;								&#10;									<path
   id="GQ-6"
   style="fill-rule:evenodd;clip-rule:evenodd;fill:url(#GQ-6_00000165216354833877391040000018072502771668754833_);"
   d="          M20.8,7.5c0.4,0.4,0.6,0.9,0.6,1.4c0,0.5-0.2,1-0.6,1.4c-0.7,0.8-2,0.8-2.7,0.1c0,0,0,0-0.1-0.1c-0.4-0.4-0.6-0.9-0.6-1.4          c0-1.1,0.9-2,2-2C19.9,6.9,20.4,7.1,20.8,7.5" />&#10;							</g>&#10;							<g
   id="use94719-6">&#10;								<path
   id="GS-2-6"
   class="st4"
   d="M19.8,8.2c0.1,0.1,0.1,0.2,0.1,0.4l0,0.2c0.1,0,0.2,0.1,0.4,0.2l0,0.1l-0.1,0.1          c-0.1,0-0.3,0-0.4-0.1c0.1,0.2,0.1,0.4,0,0.6c-0.2,0-0.3-0.1-0.3-0.4l-0.1,0L19,9.4h-0.1c0-0.2,0.2-0.4,0.4-0.4          c-0.2-0.1-0.4-0.2-0.3-0.4l0.4,0.1C19.4,8.4,19.6,8.3,19.8,8.2" />&#10;							</g>&#10;						</g>&#10;					</g>&#10;					<g
   id="use94708">&#10;						<g
   id="GP-7">&#10;							<g
   id="use94717-7">&#10;								&#10;									<radialGradient
   id="GQ-7_00000065064113272710041410000013841783104791719344_"
   cx="170.916"
   cy="1.1276"
   r="819.2"
   gradientTransform="matrix(-2.190000e-03 0 0 2.430000e-03 -1424.7903 -672.1343)"
   gradientUnits="userSpaceOnUse">&#10;									<stop
   offset="0"
   style="stop-color:#FF99CC"
   id="stop15" />&#10;									<stop
   offset="1"
   style="stop-color:#FF99CC;stop-opacity:0"
   id="stop16" />&#10;								</radialGradient>&#10;								&#10;									<path
   id="GQ-7"
   style="fill-rule:evenodd;clip-rule:evenodd;fill:url(#GQ-7_00000065064113272710041410000013841783104791719344_);"
   d="          M47.7,27.3c-0.3,0.4-0.5,0.9-0.5,1.4c0,0.5,0.2,1,0.5,1.4c0.6,0.7,1.6,0.8,2.3,0.2c0.1-0.1,0.2-0.1,0.2-0.2          c0.3-0.4,0.5-0.9,0.5-1.4c0-0.5-0.2-1-0.5-1.4c-0.6-0.7-1.7-0.8-2.3-0.2C47.8,27.2,47.8,27.3,47.7,27.3" />&#10;							</g>&#10;							<g
   id="use94719-7">&#10;								<path
   id="GS-2-7"
   class="st4"
   d="M48.6,28.1c-0.1,0.1-0.1,0.2-0.1,0.4l0,0.2c-0.1,0-0.2,0.1-0.3,0.2l0,0.1l0.1,0.1          c0.1,0,0.2,0,0.3-0.1c-0.1,0.2-0.1,0.4,0,0.6c0.2,0,0.3-0.1,0.3-0.4l0.1,0l0.3,0.1h0.1c0-0.2-0.2-0.4-0.4-0.4          c0.2,0,0.3-0.2,0.3-0.4L49,28.4C49,28.2,48.8,28.1,48.6,28.1" />&#10;							</g>&#10;						</g>&#10;					</g>&#10;				</g>&#10;			</g>&#10;		</g>&#10;	</g>&#10;	<g
   id="use95181">&#10;		<g
   id="GJ-6-2">&#10;			&#10;				<linearGradient
   id="GK-8-2_00000177485279613436271330000002059990002717360770_"
   gradientUnits="userSpaceOnUse"
   x1="38824.8359"
   y1="-278.8324"
   x2="40463.2344"
   y2="-278.8324"
   gradientTransform="matrix(1.051972e-18 1.718000e-02 0.1333 -8.160434e-18 69.5216 -620.8286)">&#10;				<stop
   offset="0"
   style="stop-color:#FF33CC;stop-opacity:0"
   id="stop17" />&#10;				<stop
   offset="1"
   style="stop-color:#FF33CC"
   id="stop18" />&#10;			</linearGradient>&#10;			&#10;				<path
   id="GK-8-2"
   style="fill-rule:evenodd;clip-rule:evenodd;fill:url(#GK-8-2_00000177485279613436271330000002059990002717360770_);"
   d="     M-4.2,43.7h73.2v33.1H-4.2V43.7" />&#10;		</g>&#10;	</g>&#10;	<g
   id="use95185">&#10;		<g
   id="GZ">&#10;			<g
   id="Ga-8">&#10;				<g
   id="use94735">&#10;					<g
   id="Gb-0">&#10;						<g
   id="Gc-8">&#10;							&#10;								<linearGradient
   id="path94742_00000103255472154773444530000005439718324116224399_"
   gradientUnits="userSpaceOnUse"
   x1="-36392.1992"
   y1="1876.6479"
   x2="-34305.1523"
   y2="1876.6479"
   gradientTransform="matrix(0 -2.110000e-02 1 4.000000e-04 -1863.9304 -679.0919)">&#10;								<stop
   offset="0"
   style="stop-color:#FFFFFF;stop-opacity:0"
   id="stop19" />&#10;								<stop
   offset="1"
   style="stop-color:#FFFFFF"
   id="stop20" />&#10;							</linearGradient>&#10;							&#10;								<path
   id="path94742"
   style="fill-rule:evenodd;clip-rule:evenodd;fill:url(#path94742_00000103255472154773444530000005439718324116224399_);"
   d="         M7.4,40.8c1-0.1,2,0.2,2.9,0.7l2.6,1.4c-0.1-0.8-0.3-1.6-0.6-2.3c-0.3-0.6-0.4-1.2-0.4-1.8c0-0.4,0.4-0.7,0.8-0.6         c0.1,0,0.1,0,0.2,0l1,2.4c-0.1-1.4,0.4-2.9,1.4-3.9c0.6,1.2,0.9,2.5,1.1,3.8c2-1.7,3.4-2.5,4.1-2.4c0.1,1.2-0.4,2.5-1.7,3.9         c1.1-0.4,2.3-0.7,3.5-0.8c0,0.9-0.4,1.7-1.1,2.2l-1.9,1.8l2,0l1.7,0.9c-0.8,0-1.6,0.2-2.4,0.4l-2.4,0.1         c0.8,0.5,1.4,1.2,1.7,2c0.5,0.8,0.8,1.6,0.9,2.5c-0.9,0.1-1.8-0.2-2.4-0.9c-0.7-0.6-1.3-1.3-1.6-2.2c0.3,1.7,0.2,2.9-0.3,3.7         c-0.5-0.5-1-1.1-1.4-1.8l-0.3,1c-0.5,1.6-0.6,2.9-0.7,6.5l0.6,0.7c0.2,0.3,0.4,0.6,0.8,0.7c0.9,0.1,1.8,0,2.6-0.4l0.3,0.1         l0.3-0.8l1.8-2.2l0,3.3c1.9-0.6,3-1.2,3.4-1.7c-0.3,1-0.5,2-0.7,3c0.4-0.5,0.9-0.8,1.5-1l0.1,1.8l0.2,0.1l0.3,0.1         c0.6-0.5,1-1.1,1.3-1.8l0.8,2.3c0-0.3,0.4-0.6,1.2-0.9c0.8-0.4,1.3-0.4,1.5-0.2c0.2,0.2,0.2,0.9-0.1,2.1H30         c0.3-0.5,0.8-0.7,1.3-0.6v0.8l0.8,0l6.6,0.6l6,1.1L-1.1,88.7l-9.7-24.4l-8.4-0.4c1.3-0.1,2.7-0.3,3.9-0.8l3.7-1.6         c1.2-0.5,2.5-0.7,3.8-0.7l3.8,0c-0.2-1,0.3-1.6,1.4-1.8c0.9-0.1,1.9-0.1,2.8,0c-0.2,0,0-0.4,0.4-0.9l0.9-1         c0.7-0.6,1.5-1.1,2.4-1.5c0.4-0.2,0.8-0.3,1.3-0.4c-0.3-0.5-0.5-1.2-0.5-1.8c0.7,0.4,1.3,1,1.8,1.8l0.1-2.6l0.6,1.1l0.4,1         c0.1-0.5,0.5-0.9,0.9-1.1l1.5-1c-0.3,1-0.4,1.9-0.4,2.9c0.6-0.6,1.3-1,2.2-1.2c0.1-1.4,0.5-2.8,1.1-4.1l0.4-1.2l-1.5,1.6         c-0.5-0.5-0.4-1.5,0.4-3.1l-1.6,1.8c-0.5,0.4-0.8,0.5-1.1,0.2c-0.2-0.4-0.3-0.8,0-1.2c0.2-0.5,0.6-1,0.9-1.5         c0.6-0.7,1-1,1.3-1c-1,0.1-2-0.1-2.8-0.6c0.8-0.4,1.6-0.5,2.5-0.4c-1-0.2-1.9-0.7-2.5-1.5C7.7,42.3,7.2,41.5,7.4,40.8" />&#10;							&#10;								<linearGradient
   id="path94752_00000063609717755266676240000005161158291757645953_"
   gradientUnits="userSpaceOnUse"
   x1="32233.1777"
   y1="428.2988"
   x2="33873.3086"
   y2="428.2988"
   gradientTransform="matrix(3.000000e-04 2.080000e-02 0.9998 -1.460000e-02 -375.2205 -613.0219)">&#10;								<stop
   offset="0"
   style="stop-color:#FFFFFF"
   id="stop21" />&#10;								<stop
   offset="1"
   style="stop-color:#FFFFFF;stop-opacity:0"
   id="stop22" />&#10;							</linearGradient>&#10;							&#10;								<path
   id="path94752"
   style="fill-rule:evenodd;clip-rule:evenodd;fill:url(#path94752_00000063609717755266676240000005161158291757645953_);"
   d="         M81.6,51.9c2.4,0,3.6,1.1,3.6,3.3c0,2.2-1.2,3.3-3.6,3.3c-0.9,0-1.9-0.3-2.5-1C78.4,57,78,56.2,78,55.3         c0-0.9,0.4-1.8,1.1-2.3C79.8,52.3,80.7,51.9,81.6,51.9 M30.7,75.9l0.6,1.8h-1.7l0.1-0.1L30.7,75.9 M70.3,50.2         c1.6-0.3,2.4,0.8,2.5,3.2c1.2-0.1,1.9,0.6,2.1,2l0.8,3.7c2.4-0.2,4,1.6,4.8,5.3l2.5-2.8c0.7,0.5,1,1.4,0.8,2.7         c0.2-0.8,1.2-1.6,2.9-2.2c-0.2,1.1-0.6,2.1-1.3,2.9l2.9,0.1c-0.9,0.6-1.7,1.3-2.3,2.2c0.9,0.5,1.5,1.3,1.8,2.3l1.5-1.3v-2         h0.7v3.8c0.6-0.4,1.3-0.5,2-0.5c-0.2,0.9-0.3,1.7-0.2,2.6c0.6-0.6,1.5-0.8,2.3-0.6v2.4h-0.8l1.2,0.1c0.3,1.3,0.9,2.5,1.8,3.6         H31.4l0.2-2.1l1.8,0.2c0.1-0.5-0.2-1-0.9-1.4l2,0.1L31.9,72c0.7,0.1,1.4,0.4,2,0.8l-0.1-2.8l2.1,1.7c0.3-3.3,1.3-5.6,3.1-6.9         l1.4-1v-5.2c-2-0.3-3-1.4-3-3.3c0-0.9,0.4-1.8,1-2.3c0.7-0.7,1.6-1,2.5-1c0.9,0,1.9,0.3,2.5,1c0.7,0.6,1.1,1.4,1.1,2.3         c0,1.9-1,3-3.1,3.3v4.5c1.7-0.8,3.2-2.1,4.3-3.7c0.5-1.4,1.1-2.8,1.9-4c1.3-2,3-3.6,5.1-4.7v-3c-0.8,0-1.5-0.8-1.4-1.6         c0,0,0,0,0,0c0-1.1,0.6-1.7,1.8-1.7c1.2,0,1.8,0.6,1.8,1.7c0.1,0.8-0.6,1.5-1.4,1.6c0,0,0,0,0,0v1.2l1.2,0.6l0.1-1.1         c0.6,0.1,1.1,0.3,1.6,0.6l0.1-1.1c0.6,0,1,0.5,1.1,1.3c0.1-1.8,0.9-3.6,2.1-4.9c1.5-1.8,3-2.2,4.5-1.2         c0.7,0.5,1.2,1.3,1.3,2.2c0.2,0.9,0.8,1.7,1.7,2c0.8,0,1.6,0.3,2.3,0.7l0.6,1C70.5,49.9,70.5,50.2,70.3,50.2" />&#10;						</g>&#10;					</g>&#10;				</g>&#10;			</g>&#10;		</g>&#10;	</g>&#10;</g>&#10;<g
   id="g321">&#10;	&#10;		<linearGradient
   id="path309_00000166676227809600895030000011513064649570999997_"
   gradientUnits="userSpaceOnUse"
   x1="16956.8867"
   y1="-19231.1406"
   x2="18595.2871"
   y2="-19231.1406"
   gradientTransform="matrix(0 3.680000e-02 -6.760000e-02 0 -1274.7455 -669.3011)">&#10;		<stop
   offset="0"
   style="stop-color:#B6D5E3"
   id="stop23" />&#10;		<stop
   offset="1"
   style="stop-color:#3D9EE8"
   id="stop24" />&#10;	</linearGradient>&#10;	&#10;		<path
   id="path309"
   style="fill-rule:evenodd;clip-rule:evenodd;fill:url(#path309_00000166676227809600895030000011513064649570999997_);"
   d="   M32.4-65.7l23,105.9L-4.8-70.5L32.4-65.7" />&#10;	&#10;		<linearGradient
   id="path311_00000100352206640907954220000001276459798392107696_"
   gradientUnits="userSpaceOnUse"
   x1="31630.7988"
   y1="-19189.7188"
   x2="33269.1992"
   y2="-19189.7188"
   gradientTransform="matrix(0 2.080000e-02 -6.760000e-02 0 -1271.9454 -662.1011)">&#10;		<stop
   offset="0"
   style="stop-color:#00FFAA"
   id="stop25" />&#10;		<stop
   offset="1"
   style="stop-color:#3D9EE8"
   id="stop26" />&#10;	</linearGradient>&#10;	&#10;		<path
   id="path311"
   style="fill-rule:evenodd;clip-rule:evenodd;fill:url(#path311_00000100352206640907954220000001276459798392107696_);"
   d="   M23.8-65.7L55.4,40.2L-4.8-70.5L23.8-65.7" />&#10;	&#10;		<linearGradient
   id="path313_00000111903392528317484300000010251923490750951812_"
   gradientUnits="userSpaceOnUse"
   x1="23977.4531"
   y1="-19069.8965"
   x2="25615.8535"
   y2="-19069.8965"
   gradientTransform="matrix(0 2.690000e-02 -6.760000e-02 0 -1278.1454 -637.1211)">&#10;		<stop
   offset="0"
   style="stop-color:#FF6600"
   id="stop27" />&#10;		<stop
   offset="1"
   style="stop-color:#3D9EE8"
   id="stop28" />&#10;	</linearGradient>&#10;	&#10;		<path
   id="path313"
   style="fill-rule:evenodd;clip-rule:evenodd;fill:url(#path313_00000111903392528317484300000010251923490750951812_);"
   d="   M55.4,40.2L-33.4-67.5l28.6-2.9L55.4,40.2" />&#10;	&#10;		<linearGradient
   id="path315_00000112623147814631456310000006974627002286862729_"
   gradientUnits="userSpaceOnUse"
   x1="22792.6973"
   y1="-19723.7832"
   x2="24431.0977"
   y2="-19723.7832"
   gradientTransform="matrix(0 2.810000e-02 -6.580000e-02 -1.000000e-04 -1300.4454 -645.1111)">&#10;		<stop
   offset="0"
   style="stop-color:#F70095"
   id="stop29" />&#10;		<stop
   offset="1"
   style="stop-color:#3D9EE8"
   id="stop30" />&#10;	</linearGradient>&#10;	&#10;		<path
   id="path315"
   style="fill-rule:evenodd;clip-rule:evenodd;fill:url(#path315_00000112623147814631456310000006974627002286862729_);"
   d="   M-33.4-67.5L55.4,40.2L-60.6-57.5L-33.4-67.5" />&#10;	&#10;		<linearGradient
   id="path317_00000183216803340558834330000003857034414695777940_"
   gradientUnits="userSpaceOnUse"
   x1="25844.4414"
   y1="-21631.248"
   x2="27482.8418"
   y2="-21631.248"
   gradientTransform="matrix(4.000000e-04 2.580000e-02 -5.960000e-02 9.000000e-04 -1316.8254 -657.9011)">&#10;		<stop
   offset="0"
   style="stop-color:#B6D5E3"
   id="stop31" />&#10;		<stop
   offset="1"
   style="stop-color:#3D9EE8"
   id="stop32" />&#10;	</linearGradient>&#10;	&#10;		<path
   id="path317"
   style="fill-rule:evenodd;clip-rule:evenodd;fill:url(#path317_00000183216803340558834330000003857034414695777940_);"
   d="   M-60.6-57.5L55.4,40.2L-89.5-36.2L-60.6-57.5" />&#10;	&#10;		<linearGradient
   id="path319_00000170265854738213886900000011917186173448356739_"
   gradientUnits="userSpaceOnUse"
   x1="31309.3711"
   y1="-21902.2656"
   x2="32947.7734"
   y2="-21902.2656"
   gradientTransform="matrix(0 2.100000e-02 -5.960000e-02 0 -1319.7954 -672.9411)">&#10;		<stop
   offset="0"
   style="stop-color:#3EC4FD"
   id="stop33" />&#10;		<stop
   offset="1"
   style="stop-color:#3D9EE8"
   id="stop34" />&#10;	</linearGradient>&#10;	&#10;		<path
   id="path319"
   style="fill-rule:evenodd;clip-rule:evenodd;fill:url(#path319_00000170265854738213886900000011917186173448356739_);"
   d="   M-60.6-57.5L55.4,40.2L-84.2-40.6L-60.6-57.5" />&#10;</g>&#10;<path
   class="st20"
   d="M32,14.1h-0.6c-4.3,0-7.7,1.1-10.3,3.3c-4.6,4-4.9,10.7-4.8,16.4c-0.1,3.2,0.4,6.4,1.6,9.4  c1.5,3,4.1,5.2,7.3,6.2c2.7,0.9,5.5,1.2,8.4,1c3.7-0.2,7.6-1,10.5-3.4c2.3-2.1,3.7-4.9,4.1-7.9c0-0.2,0.1-0.4,0.1-0.6  c0.2-2.5,0.3-4.9,0.2-7.4c0.1-2.4-0.1-4.7-0.7-7c-0.7-2.6-2.1-4.9-4.1-6.6c-2.5-2.2-6-3.3-10.3-3.3H32z"
   id="path34" />&#10;<path
   id="path331"
   class="st21"
   d="M20.6,28.2c0.5-0.1,0.9,0.3,1,0.7c0,0.1,0,0.2,0,0.3v6.2c0,0.3-0.1,0.5-0.3,0.7  c-0.2,0.2-0.5,0.3-0.8,0.3l-2.5-0.2c-0.5,0.4-0.9,1-1,1.7c-0.4,2.3-1.1,3.8-2.1,4.5c-0.7,0.4-1.5,0.6-2.3,0.5  c-0.9,0.1-1.7-0.1-2.6-0.4c-0.8-0.4-1.2-1.3-1.1-2.1l0-0.6l-1.5,0.2l-3.1,0.2c-0.7-0.3-1.3-0.8-1.8-1.4C2.3,38.4,2,37.7,2,37  l0.2-1.2c0.3-0.9,0.4-1.8,0.4-2.8l-0.4-1.1C1.8,31,1.6,30,1.7,29c0.3-0.9,0.8-1.6,1.6-2c0.3-0.3,0.8-0.3,1.1,0  c0.4,0.2,0.5,0.6,0.4,1c-0.2,0.5-0.1,1.1,0.2,1.6l0.4,0.1l2.4-0.5c0.6-0.3,1.3-0.4,2-0.3c0.7,0.1,1.3,0.5,1.7,1.1l0.2,0.8  c0,0.3-0.1,0.6-0.2,0.8c-0.2,0.5-0.3,1-0.3,1.4l0,0.3c0.3,0.1,0.5,0.1,0.8,0c0.4-0.2,0.7-0.8,1-1.7c0.4-1.4,1.5-2.5,2.9-3  c0.8-0.3,1.6-0.5,2.5-0.4L20.6,28.2" />&#10;<path
   id="path333"
   class="st22"
   d="M17.1,35.8c-0.6,0.6-0.9,1.3-1,2c-0.3,2-0.8,3.3-1.6,3.8c-0.6,0.3-1.2,0.4-1.9,0.4  c-0.7,0.1-1.4,0-2-0.3c-0.3-0.2-0.5-0.7-0.5-1.5S10,39.1,9.8,39l-2.4,0.2l-2.6,0.2c-0.5-0.2-1-0.6-1.3-1C3.2,38,3,37.5,3,37.1  c0.4-1.4,0.6-2.8,0.6-4.2c-0.8-1.8-1.1-3-1-3.6c0.1-0.4,0.4-0.8,0.7-1l0.5-0.4c-0.4,2,0.1,2.9,1.6,2.9c0.9-0.1,1.7-0.2,2.5-0.5  c0.5-0.2,1-0.3,1.6-0.4c1,0.2,1.3,0.6,0.9,1.3c-0.2,0.5-0.3,1.1-0.4,1.7c-0.1,0.8,0.1,1.2,0.6,1.4c1.6,0.5,2.6-0.2,3.2-2.4  c0.4-1.2,1.3-2.1,2.5-2.4l1.9-0.2h2.4v6.2l-2.8-0.2C17.6,35.4,17.3,35.6,17.1,35.8" />&#10;<path
   id="path331-2"
   class="st21"
   d="M44,28.2h2.3c0.9-0.1,1.7,0,2.5,0.4c1.4,0.4,2.5,1.6,3,3c0.3,1,0.6,1.5,1,1.7  c0.3,0.1,0.5,0.1,0.8,0l0-0.3c0-0.5-0.1-1-0.3-1.5c-0.1-0.3-0.2-0.5-0.2-0.8l0.2-0.8c0.4-0.6,1-1,1.7-1.1c0.7,0,1.4,0.1,2,0.3  l2.4,0.5l0.4-0.1c0.3-0.5,0.3-1.1,0.2-1.6c-0.1-0.4,0.1-0.8,0.4-1c0.3-0.3,0.8-0.3,1.1,0c0.8,0.4,1.3,1.2,1.6,2c0.1,1-0.1,2-0.5,2.9  l-0.4,1.2c0,0.9,0.1,1.9,0.4,2.8l0.2,1.2c0,0.7-0.3,1.4-0.8,1.9c-0.4,0.6-1,1.1-1.8,1.4l-3.1-0.2l-1.5-0.2l0,0.6  c0.1,0.9-0.3,1.7-1,2.1C53.8,43,52.9,43.1,52,43c-0.8,0-1.6-0.2-2.3-0.5c-1.1-0.7-1.8-2.2-2.1-4.5c-0.1-0.7-0.4-1.3-1-1.7l-2.5,0.2  c-0.3,0-0.5-0.1-0.8-0.3C43.1,36,43,35.7,43,35.4v-6.2c-0.1-0.5,0.3-0.9,0.7-1C43.9,28.2,43.9,28.2,44,28.2" />&#10;<path
   id="path333-2"
   class="st22"
   d="M47.6,35.8c-0.2-0.2-0.5-0.4-0.8-0.5L44,35.4v-6.2h2.4l1.9,0.2c1.2,0.3,2.2,1.2,2.5,2.4  c0.6,2.1,1.7,2.9,3.2,2.3c0.4-0.1,0.6-0.6,0.5-1.4c0-0.6-0.2-1.1-0.4-1.6c-0.3-0.7,0-1.1,1-1.3c0.6,0,1.1,0.1,1.6,0.4  c0.8,0.3,1.7,0.5,2.5,0.5c1.4,0.1,1.9-0.9,1.5-2.9l0.5,0.4c0.3,0.3,0.6,0.6,0.7,1c0.1,0.6-0.2,1.8-1,3.6c0,1.4,0.2,2.8,0.6,4.2  c0,0.5-0.2,0.9-0.5,1.2c-0.3,0.5-0.8,0.8-1.3,1l-2.6-0.2L54.9,39c-0.2,0.1-0.3,0.5-0.3,1.3s-0.1,1.3-0.5,1.5c-0.6,0.3-1.3,0.4-2,0.3  c-0.6,0-1.3-0.1-1.9-0.4c-0.8-0.5-1.4-1.8-1.7-3.8C48.5,37,48.1,36.3,47.6,35.8" />&#10;<path
   class="st22"
   d="m 32.4,16.1 c 3.4,0 7,0.4 9.7,2.7 0.1,0.1 0.1,0.1 0.2,0.2 2.3,2.1 3.7,4.9 4,7.9 l 0.1,0.3 0.1,1.3 v 8.4 c 0,3.3 -1.5,7 -4.3,8.9 -2,1.3 -4.2,2.1 -6.5,2.5 -1.2,0.1 -2.4,0.2 -3.6,0.1 -1.1,0 -2.3,-0.1 -3.4,-0.2 -2.2,-0.4 -4.2,-1.2 -6,-2.5 -3.4,-2.5 -4.2,-6.8 -4.2,-10.8 0,-5.6 -0.5,-12 4.1,-16 2.6,-2.2 5.8,-2.8 9.1,-2.8 0.2,0 0.4,0 0.7,0 z"
   id="path35"
   style="display:inline" />&#10;<linearGradient
   id="SVGID_1_"
   gradientUnits="userSpaceOnUse"
   x1="-90655.1016"
   y1="81224.7266"
   x2="-88971.2812"
   y2="81224.7266"
   gradientTransform="matrix(0,-0.008,-0.0152,1e-4,1267.25,-691.65)">&#10;	<stop
   offset="0"
   style="stop-color:#DEC1CC"
   id="stop35" />&#10;	<stop
   offset="1"
   style="stop-color:#FFFFFF"
   id="stop36" />&#10;</linearGradient>&#10;<path
   class="st23"
   d="m 21.9,35.3 c 0.7,-2.5 4,-2.6 6.1,-2.3 0.8,0.1 1.5,0.3 2.2,0.7 0.7,0.4 1.2,1 1.4,1.7 0.1,0.7 0.2,1.4 0.2,2.1 0,0.2 0.1,0.5 0.3,0.7 0.1,0.2 0.4,0.3 0.6,0.3 0.4,-0.1 0.6,-0.6 0.6,-1 0,-0.6 0.1,-1.1 0.1,-1.7 v -8.5 c 0.1,-0.3 -0.1,-0.7 -0.3,-0.9 -0.4,-0.2 -0.8,0 -1,0.3 -0.2,0.4 -0.2,0.7 -0.3,1.1 -0.1,1 -0.5,1.9 -1.3,2.5 -0.7,0.5 -1.5,0.9 -2.4,0.9 -1.2,0.1 -2.4,0 -3.6,-0.1 -0.9,0 -1.7,-0.3 -2.4,-0.9 -0.3,-0.4 -0.4,-0.9 -0.4,-1.4 -0.2,-2.3 0,-4.7 1.5,-6.5 1.3,-1.4 3,-2.4 4.9,-2.8 0.6,-0.1 1.1,-0.1 1.7,-0.2 2.1,-0.2 4.2,-0.2 6.2,0.1 1.6,0.1 3.2,0.8 4.5,1.8 1.7,1.6 2.7,3.8 2.9,6.1 l 0.1,1.3 v 8 l -0.1,1 c -0.2,1.9 -1,3.8 -2.3,5.2 -1.7,1.4 -3.7,2.2 -5.9,2.3 -2.2,0.3 -4.4,0.2 -6.6,-0.2 -1.4,-0.3 -2.7,-0.8 -3.9,-1.6 -1.9,-1.4 -3.1,-3.6 -3.1,-6 0.1,-0.6 0.1,-1.3 0.3,-2 z"
   id="path36"
   style="display:inline;fill:url(#SVGID_1_)" />&#10;<path
   class="st24"
   d="m 29.176641,19.4 c -1.6,0.3 -3.2,1 -4.4,2.1 -1.2,1.2 -2,2.7 -2.1,4.4 -0.2,0.9 0,1.7 0.5,2.5 0.4,0.4 1,0.7 1.5,0.7 0.9,0.1 1.8,0.2 2.8,0.1 0.9,0 1.7,-0.2 2.5,-0.6 0.9,-0.6 1.1,-1.9 1.2,-3 0,-0.5 0.3,-0.9 1,-1.3 l 0.4,-0.1 0.5,-0.1 c 1,0 1.5,0.7 1.5,2 v 10.1 l -0.1,0.6 c -0.3,1.1 -0.8,1.7 -1.6,1.6 -0.3,0 -0.5,0 -0.8,-0.1 -0.4,-0.2 -0.5,-0.1 -0.9,-0.8 -0.3,-0.8 -0.4,-1.7 -0.4,-2.5 -0.1,-0.7 -0.5,-1.2 -1.1,-1.5 -0.9,-0.5 -2,-0.7 -3,-0.7 -1,-0.1 -2.1,0.2 -3,0.7 -1.5,1.1 -1,3.1 -0.6,4.6 0.4,1.4 1.3,2.5 2.4,3.4 1.1,0.7 2.2,1.2 3.5,1.4 2.4,0.4 4.8,0.5 7.2,0.1 1.7,-0.2 3.3,-1 4.5,-2.1 1,-1.2 1.7,-2.7 1.9,-4.3 l 0.1,-0.9 v -7.9 l -0.1,-1.3 c -0.2,-2.1 -1.1,-4 -2.6,-5.5 -0.8,-0.7 -1.7,-1.1 -2.7,-1.4 -0.6,-0.2 -1.2,-0.3 -1.8,-0.3 -0.7,-0.1 -1.4,-0.1 -2.1,-0.1 -0.8,0 -1.5,0 -2.3,0 -0.6,0 -1.2,0.1 -1.9,0.2 z"
   id="path37"
   style="display:inline" />&#10;<linearGradient
   id="SVGID_00000024697595919684028080000001100814164131129785_"
   gradientUnits="userSpaceOnUse"
   x1="-71050.5156"
   y1="96836.0781"
   x2="-69356.4922"
   y2="96836.0781"
   gradientTransform="matrix(0,-0.0104,-0.0125,0,1243.1266,-699.72)">&#10;	<stop
   offset="0"
   style="stop-color:#FF0075"
   id="stop37" />&#10;	<stop
   offset="1"
   style="stop-color:#FF94C4"
   id="stop38" />&#10;</linearGradient>&#10;<path
   style="clip-rule:evenodd;fill:url(#SVGID_00000024697595919684028080000001100814164131129785_);fill-rule:evenodd"
   d="m 41.676641,27.8 -0.1,-1.2 c -0.1,-1.8 -0.9,-3.5 -2.2,-4.8 -1.2,-1 -3,-1.4 -5.5,-1.5 l -1.2,-0.1 c -1.6,-0.1 -3.2,0.1 -4.7,0.6 -1.7,0.6 -3.1,1.9 -3.8,3.5 -0.3,0.7 -0.5,1.4 -0.5,2.1 0,0.3 0,0.6 0.1,0.9 0.1,0.5 0.5,0.7 1,0.7 0.7,0.1 1.3,0.1 2,0.2 0.8,0 2,0.2 2.7,-0.5 0.5,-0.6 0.7,-1.3 0.7,-2 0,-1 0.6,-1.9 1.5,-2.2 l 0.6,-0.2 0.8,-0.1 c 1.7,0 2.6,1 2.6,2.9 v 10.3 l -0.1,0.7 c -0.4,1.6 -1.3,2.4 -2.6,2.4 l -0.9,-0.1 c -0.7,-0.2 -1.3,-0.7 -1.7,-1.3 -0.2,-0.4 -0.3,-0.9 -0.4,-1.4 0,-0.3 -0.1,-0.6 -0.1,-0.9 0,-0.3 0.1,-0.7 -0.1,-1 -0.4,-0.4 -0.9,-0.7 -1.5,-0.8 -0.7,-0.1 -1.4,-0.2 -2.1,-0.2 -0.7,0 -1.4,0.2 -1.9,0.6 -0.4,0.5 -0.6,1.1 -0.5,1.8 l 0.2,0.9 0.3,0.8 c 0.3,1.1 1,2.1 2,2.8 0.9,0.6 1.9,1.1 3,1.3 3,0.5 6.6,0.6 9.4,-0.7 0.9,-0.4 1.6,-1 2.2,-1.8 0.5,-0.9 0.8,-1.9 0.9,-2.9 l -0.1,-8.8"
   id="path38" />&#10;</svg>
